<?xml version="1.0" standalone="no"?>
<!DOCTYPE svg PUBLIC "-//W3C//DTD SVG 20010904//EN"
 "http://www.w3.org/TR/2001/REC-SVG-20010904/DTD/svg10.dtd">
<svg version="1.0" xmlns="http://www.w3.org/2000/svg"
 width="1024" height="1024" viewBox="266 -42 1040 1040"
 preserveAspectRatio="xMidYMid meet">

<rect x="266" y="-42" width="1040" height="1040" rx="190" fill="#14100d"/>

<g transform="translate(0.000000,1024.000000) scale(0.100000,-0.100000)"
fill="#e8bd82" stroke="none">
<path d="M9598 9429 c-28 -11 -68 -78 -68 -115 0 -10 -14 -100 -30 -198 -17
-99 -28 -186 -26 -193 3 -8 2 -12 -2 -9 -5 3 -16 -36 -25 -87 -10 -51 -43
-221 -73 -378 l-56 -286 -76 -6 c-42 -3 -77 -5 -78 -4 0 1 -26 119 -58 262
-31 143 -64 270 -72 283 -21 31 -60 45 -117 39 -56 -5 -94 -35 -102 -81 -7
-34 123 -616 149 -673 29 -62 53 -66 283 -55 196 10 206 12 238 36 18 14 36
34 39 43 13 44 149 747 197 1016 57 325 57 353 8 389 -31 23 -94 31 -131 17z
m75 -6 c-7 -2 -21 -2 -30 0 -10 3 -4 5 12 5 17 0 24 -2 18 -5z m68 -30 c13
-16 12 -17 -3 -4 -10 7 -18 15 -18 17 0 8 8 3 21 -13z"/>
<path d="M7929 9087 c-24 -16 -37 -35 -44 -62 -9 -37 -5 -47 109 -269 147
-286 366 -698 418 -789 22 -38 38 -70 36 -71 -1 -1 -43 -30 -92 -65 -48 -34
-93 -60 -100 -58 -6 3 -45 34 -86 69 -182 156 -365 298 -391 303 -18 4 -44 -1
-73 -13 -38 -17 -47 -27 -57 -62 -12 -38 -11 -46 10 -84 14 -26 58 -69 119
-118 53 -43 168 -136 254 -207 166 -137 202 -161 241 -161 27 0 36 6 220 139
70 50 134 94 142 97 8 4 12 10 9 15 -3 5 -2 9 3 8 23 -4 35 4 53 34 39 63 52
33 -303 702 -284 536 -296 559 -314 573 -9 6 -13 12 -7 12 5 1 -2 7 -16 15
-38 22 -92 18 -131 -8z"/>
<path d="M10901 8701 c-11 -11 -21 -18 -21 -15 0 4 -7 1 -15 -6 -8 -7 -12 -17
-8 -23 3 -5 2 -7 -4 -4 -11 7 -208 -204 -478 -513 -103 -118 -206 -234 -228
-257 l-40 -41 -48 36 c-26 21 -48 41 -48 45 -1 5 49 105 109 223 66 129 110
227 110 245 0 17 -11 41 -28 60 -24 27 -37 33 -86 37 -49 4 -60 1 -81 -18 -20
-19 -173 -294 -278 -502 -49 -95 -43 -106 126 -236 211 -162 215 -165 262
-157 45 7 77 34 191 164 41 46 71 88 67 94 -3 5 -1 7 5 4 5 -4 95 89 204 210
297 334 358 405 351 416 -3 6 -2 7 4 4 13 -8 82 76 93 113 9 33 2 73 -11 64
-5 -3 -6 1 -4 8 9 22 -39 59 -83 65 -32 4 -44 1 -61 -16z"/>
<path d="M7181 7996 c-32 -18 -50 -53 -51 -98 0 -29 9 -47 41 -84 22 -26 48
-54 58 -63 9 -9 27 -28 40 -43 l23 -26 -94 -134 c-52 -73 -143 -203 -203 -288
-341 -489 -780 -1101 -1145 -1600 -59 -80 -169 -232 -246 -338 l-139 -192 -11
67 c-7 49 -7 74 0 88 11 21 251 361 372 525 202 277 743 1049 958 1365 48 72
128 189 177 260 78 114 89 135 89 173 0 36 -5 49 -31 73 -24 23 -39 28 -74 27
-27 0 -46 -6 -49 -14 -3 -8 -11 -11 -19 -8 -8 3 -24 -11 -41 -36 -14 -22 -24
-40 -22 -40 2 0 -9 -14 -25 -32 -17 -17 -28 -37 -25 -45 3 -8 2 -12 -2 -9 -9
6 -268 -383 -265 -396 2 -4 -1 -8 -7 -8 -12 0 -255 -361 -254 -377 1 -7 -2
-11 -7 -10 -11 3 -229 -314 -223 -325 3 -5 1 -7 -4 -6 -13 4 -334 -451 -326
-463 3 -5 1 -8 -4 -7 -6 2 -85 -103 -178 -232 -592 -831 -716 -1004 -806
-1123 -33 -43 -56 -82 -52 -89 4 -6 3 -8 -3 -5 -12 8 -106 -119 -98 -133 3 -5
1 -10 -4 -10 -6 0 -11 -11 -11 -25 0 -62 45 -99 118 -97 30 1 43 9 70 39 46
54 386 514 490 663 84 121 87 124 93 95 17 -79 13 -90 -75 -198 -46 -57 -88
-113 -95 -124 -42 -79 46 -161 127 -119 17 9 39 29 49 46 22 38 33 38 33 -1 0
-38 127 -1012 175 -1343 20 -132 51 -349 70 -481 19 -132 39 -265 44 -295 5
-30 8 -56 7 -56 0 -1 -18 -4 -38 -8 -43 -8 -40 -14 -58 124 -9 73 -90 676
-136 1015 -8 61 -24 182 -35 270 -11 88 -26 169 -34 181 -37 56 -140 53 -170
-6 -14 -27 -12 -53 25 -327 21 -164 49 -368 60 -453 11 -85 31 -231 45 -325
37 -263 66 -497 62 -502 -2 -2 -62 -10 -133 -19 -71 -8 -139 -21 -151 -29 -31
-21 -39 -74 -18 -118 27 -58 52 -62 238 -43 202 21 423 42 637 61 91 8 235 21
320 29 85 9 223 20 305 25 83 6 330 24 550 41 220 16 483 34 585 40 102 6 253
15 335 20 162 11 234 15 540 30 424 21 633 30 1000 45 209 8 405 17 436 20
l57 6 4 -94 c5 -112 19 -141 78 -157 51 -14 106 7 121 46 5 15 9 69 7 118 l-3
91 63 2 c36 2 72 9 85 18 12 8 18 15 14 15 -5 0 -1 7 7 16 27 26 20 81 -13
115 -27 26 -36 29 -98 29 l-69 0 -12 248 c-6 136 -21 407 -32 602 -11 195 -23
435 -28 534 -8 178 -8 179 -35 202 -39 34 -108 33 -142 -1 -22 -21 -25 -33
-25 -99 0 -72 41 -863 60 -1161 5 -82 10 -188 11 -235 l2 -85 -31 -3 c-40 -4
-34 -61 -67 658 -8 179 -19 440 -25 580 -31 784 -48 1139 -55 1149 -3 6 -5 11
-2 11 4 0 334 -332 459 -462 51 -54 108 -109 127 -123 78 -56 171 -9 171 86 0
34 -12 48 -290 334 -85 88 -252 261 -370 385 -405 425 -534 554 -2213 2220
l-448 445 -47 2 c-26 2 -58 -3 -71 -11z m320 -521 c23 -25 46 -42 52 -38 5 3
7 1 4 -4 -4 -6 20 -36 53 -68 l60 -57 -52 -66 c-29 -37 -103 -128 -163 -202
-146 -179 -608 -762 -1074 -1355 -69 -88 -189 -239 -266 -336 -335 -422 -320
-401 -320 -441 0 -65 63 -109 135 -93 38 8 87 66 565 665 208 261 431 540 494
618 64 79 145 181 181 227 143 183 612 757 656 805 12 12 25 3 98 -69 l85 -84
-49 -51 c-60 -64 -400 -453 -529 -606 -485 -576 -1095 -1319 -1124 -1368 -56
-95 73 -198 156 -125 18 17 223 258 512 603 66 79 225 268 354 419 128 152
260 309 294 349 33 39 63 72 67 72 3 0 54 -71 112 -157 244 -364 823 -1171
893 -1245 31 -34 41 -38 84 -38 60 0 98 26 107 75 8 45 14 34 -261 420 -253
355 -515 728 -678 967 l-107 156 61 71 c34 39 65 71 69 71 3 0 45 -55 92 -122
411 -592 601 -860 782 -1108 251 -344 385 -517 412 -529 74 -34 154 11 154 86
0 34 -16 61 -128 213 -142 195 -555 772 -652 911 -28 40 -402 569 -464 655
l-40 55 32 31 c17 18 33 30 34 27 2 -3 328 -331 725 -729 l722 -725 11 -245
c6 -135 15 -317 20 -405 12 -198 25 -475 45 -930 8 -192 17 -381 20 -420 3
-38 9 -162 15 -275 6 -113 13 -242 16 -286 l6 -82 -164 -6 c-90 -4 -354 -16
-588 -27 -234 -11 -454 -21 -489 -22 l-63 -2 -4 50 c-3 28 -25 268 -50 535
-24 267 -56 618 -70 780 -31 365 -38 398 -82 423 -41 24 -94 16 -129 -19 -23
-23 -24 -31 -22 -104 2 -43 1 -81 -1 -83 -3 -3 -52 -8 -110 -11 -58 -4 -170
-13 -250 -21 -80 -8 -210 -19 -290 -25 -80 -6 -192 -15 -250 -20 -57 -5 -106
-8 -107 -6 -2 1 -7 27 -13 57 -6 34 -18 61 -31 71 -24 20 -99 24 -130 8 -31
-17 -52 -68 -45 -112 3 -21 3 -38 -1 -38 -163 -11 -205 -18 -227 -39 -32 -30
-41 -82 -21 -120 24 -47 46 -54 164 -50 l106 4 7 -95 c5 -52 17 -189 28 -305
64 -652 90 -929 90 -948 0 -22 -5 -23 -527 -66 -291 -23 -559 -47 -598 -51
-38 -5 -71 -8 -72 -7 -5 5 -185 1313 -243 1762 -17 132 -43 329 -59 438 l-27
198 50 62 c55 68 664 882 821 1097 260 356 773 1071 1028 1433 27 37 50 67 52
67 3 0 23 -20 46 -45z m633 -3467 c2 -13 12 -113 21 -223 26 -319 93 -1056
101 -1101 l6 -41 -118 -7 c-306 -18 -756 -46 -820 -52 l-71 -6 -7 43 c-3 24
-13 118 -21 209 -9 91 -22 230 -30 310 -50 511 -76 802 -72 807 5 4 145 16
657 53 85 7 191 15 235 20 44 4 88 8 97 9 11 0 19 -8 22 -21z"/>
<path d="M7560 5670 c-113 -27 -206 -101 -254 -204 -25 -53 -28 -67 -24 -150
2 -77 8 -100 32 -149 61 -119 169 -186 315 -194 72 -4 96 -1 144 17 84 32 147
86 187 161 30 57 35 75 38 156 4 86 2 96 -26 156 -16 35 -46 80 -66 100 -91
91 -230 134 -346 107z m160 -218 c86 -54 98 -169 24 -238 -73 -70 -203 -47
-240 42 -26 61 -10 150 32 185 46 38 133 43 184 11z"/>
<path d="M10830 7616 c-63 -23 -202 -75 -309 -115 -107 -40 -207 -79 -222 -87
-36 -18 -59 -52 -59 -84 0 -14 29 -126 65 -250 70 -245 83 -269 148 -271 45
-2 16 -5 502 55 242 30 530 66 640 79 110 14 213 31 228 38 57 26 77 119 35
160 -13 12 -16 19 -8 15 8 -4 2 4 -15 19 -27 24 -36 26 -95 22 -76 -6 -765
-87 -990 -118 -85 -11 -163 -21 -174 -22 -15 -2 -23 13 -42 78 -30 102 -30
111 2 119 66 17 533 208 548 225 25 28 31 83 12 119 -39 76 -100 80 -266 18z"/>
<path d="M10335 6596 c-31 -13 -49 -39 -64 -91 -5 -16 -30 -97 -55 -179 -25
-82 -46 -161 -46 -175 0 -33 64 -93 222 -206 68 -49 237 -174 376 -279 347
-261 331 -251 375 -251 32 0 45 7 73 38 33 36 40 60 28 104 -7 25 -229 208
-559 461 -115 88 -221 169 -234 179 l-24 19 27 72 c15 40 30 72 32 72 9 0 346
-59 429 -75 116 -22 132 -20 171 19 27 27 34 42 34 74 0 57 -14 89 -48 106
-51 26 -470 95 -493 80 -7 -4 -10 -3 -6 3 4 7 -27 17 -82 27 -105 19 -117 19
-156 2z"/>
<path d="M9872 5963 c-43 -21 -67 -69 -58 -115 5 -26 25 -53 79 -103 39 -38
151 -146 247 -241 188 -184 215 -202 284 -183 39 11 64 35 75 75 15 55 -4 86
-126 205 -254 248 -355 344 -381 361 -34 22 -77 23 -120 1z"/>
<path d="M7210 2159 c-420 -13 -1137 -60 -1525 -99 -104 -10 -215 -22 -245
-25 -121 -11 -439 -46 -510 -55 -582 -74 -1014 -136 -1040 -150 -54 -29 -64
-92 -23 -140 26 -31 28 -32 97 -27 65 4 379 45 521 67 66 10 562 71 775 94
409 45 948 91 1320 111 52 3 172 10 265 16 278 17 1351 23 1735 10 409 -14
979 -45 1210 -66 91 -8 197 -17 235 -20 355 -27 958 -94 1226 -135 205 -32
255 -25 276 37 13 38 -2 89 -31 109 -39 25 -505 91 -1013 144 -399 42 -411 43
-853 75 -730 53 -1730 75 -2420 54z"/>
<path d="M6910 1725 c-588 -23 -1163 -60 -1245 -81 -44 -11 -71 -87 -40 -117
8 -8 12 -17 9 -20 -3 -3 5 -13 19 -22 23 -15 44 -15 263 -1 718 46 1329 61
2169 52 702 -7 750 -8 1289 -36 218 -11 368 -15 382 -10 31 12 57 64 49 98
-15 66 -42 76 -220 87 -60 3 -123 8 -140 10 -56 8 -590 35 -875 45 -376 13
-1253 10 -1660 -5z"/>
</g>
</svg>
